<svg width="132" height="79" viewBox="0 0 132 79" fill="none" xmlns="http://www.w3.org/2000/svg">
<path d="M34.5156 0.078125C22.6094 0.078125 13.5156 4.67188 7.23438 13.8594C2.64062 20.7031 0.34375 29.0469 0.34375 38.8906C0.34375 54.0781 4.9375 65.1875 14.125 72.2188C19.6562 76.3438 26.2188 78.4062 33.8125 78.4062C45.625 78.4062 54.5781 73.7656 60.6719 64.4844C65.1719 57.6406 67.4219 49.2969 67.4219 39.4531C67.4219 23.0469 62.4531 11.5625 52.5156 5C47.3594 1.71875 41.3594 0.078125 34.5156 0.078125ZM34.2344 74.6094C27.2031 74.6094 22.5625 70.4375 20.3125 62.0938C18.8125 56.6562 18.0625 49.1094 18.0625 39.4531C18.0625 19.9531 21.4844 8.51562 28.3281 5.14062C30.0156 4.29688 31.9375 3.875 34.0938 3.875C41.0312 3.875 45.5781 8.42188 47.7344 17.5156C49.0469 22.8594 49.7031 29.9375 49.7031 38.75C49.7031 57.4062 46.8438 68.7031 41.125 72.6406C39.1562 73.9531 36.8594 74.6094 34.2344 74.6094ZM105.109 1.48438L75.7188 20.4688L78.25 24.4062L99.0625 11.6094V72.0781L80.7812 73.3438V77H131.828C131.828 75.0312 130.844 73.8594 128.875 73.4844C128.5 73.3906 128.125 73.3438 127.75 73.3438L115.516 72.0781V1.48438H105.109Z" fill="#A6CE39" fill-opacity="0.5"/>
</svg>
