<svg width="134" height="79" viewBox="0 0 134 79" fill="none" xmlns="http://www.w3.org/2000/svg">
<path d="M34.5156 0.078125C22.6094 0.078125 13.5156 4.67188 7.23438 13.8594C2.64062 20.7031 0.34375 29.0469 0.34375 38.8906C0.34375 54.0781 4.9375 65.1875 14.125 72.2188C19.6562 76.3438 26.2188 78.4062 33.8125 78.4062C45.625 78.4062 54.5781 73.7656 60.6719 64.4844C65.1719 57.6406 67.4219 49.2969 67.4219 39.4531C67.4219 23.0469 62.4531 11.5625 52.5156 5C47.3594 1.71875 41.3594 0.078125 34.5156 0.078125ZM34.2344 74.6094C27.2031 74.6094 22.5625 70.4375 20.3125 62.0938C18.8125 56.6562 18.0625 49.1094 18.0625 39.4531C18.0625 19.9531 21.4844 8.51562 28.3281 5.14062C30.0156 4.29688 31.9375 3.875 34.0938 3.875C41.0312 3.875 45.5781 8.42188 47.7344 17.5156C49.0469 22.8594 49.7031 29.9375 49.7031 38.75C49.7031 57.4062 46.8438 68.7031 41.125 72.6406C39.1562 73.9531 36.8594 74.6094 34.2344 74.6094ZM85.4219 64.3438C85.4219 60.875 88.8906 57.1719 95.8281 53.2344C97.4219 52.3906 100 51.0781 103.562 49.2969C113.969 43.9531 121.047 39.4531 124.797 35.7969C129.484 31.1094 131.828 26.0469 131.828 20.6094C131.828 11.4219 126.859 5.23438 116.922 2.04688C112.891 0.734375 108.484 0.078125 103.703 0.078125C93.9531 0.078125 86.6406 2.51562 81.7656 7.39062C78.8594 10.2969 77.4062 13.7656 77.4062 17.7969C77.4062 22.3906 79.0938 25.25 82.4688 26.375C83.3125 26.6562 84.1562 26.7969 85 26.7969C89.5 26.7969 92.2188 24.6406 93.1562 20.3281C93.3438 19.2969 93.4844 17.6562 93.5781 15.4062C93.9531 10.4375 94.9375 7.25 96.5312 5.84375C97.9375 4.53125 99.9531 3.875 102.578 3.875C109.047 3.875 113.031 7.29688 114.531 14.1406C114.906 15.9219 115.094 17.75 115.094 19.625C115.094 29.2812 111.391 36.9688 103.984 42.6875C102.859 43.5312 98.875 46.1094 92.0312 50.4219C85.4688 54.5469 81.2031 58.7656 79.2344 63.0781C77.8281 66.1719 77.125 69.5938 77.125 73.3438V77H133.234L133.375 51.4062H130.281L127.891 58.1562C126.672 61.5312 124.797 63.5 122.266 64.0625C121.141 64.25 119.594 64.3438 117.625 64.3438H85.4219Z" fill="#A6CE39" fill-opacity="0.5"/>
</svg>
