<svg width="141" height="89" viewBox="0 0 141 89" fill="none" xmlns="http://www.w3.org/2000/svg">
<path d="M34.5156 0.078125C22.6094 0.078125 13.5156 4.67188 7.23438 13.8594C2.64062 20.7031 0.34375 29.0469 0.34375 38.8906C0.34375 54.0781 4.9375 65.1875 14.125 72.2188C19.6562 76.3438 26.2188 78.4062 33.8125 78.4062C45.625 78.4062 54.5781 73.7656 60.6719 64.4844C65.1719 57.6406 67.4219 49.2969 67.4219 39.4531C67.4219 23.0469 62.4531 11.5625 52.5156 5C47.3594 1.71875 41.3594 0.078125 34.5156 0.078125ZM34.2344 74.6094C27.2031 74.6094 22.5625 70.4375 20.3125 62.0938C18.8125 56.6562 18.0625 49.1094 18.0625 39.4531C18.0625 19.9531 21.4844 8.51562 28.3281 5.14062C30.0156 4.29688 31.9375 3.875 34.0938 3.875C41.0312 3.875 45.5781 8.42188 47.7344 17.5156C49.0469 22.8594 49.7031 29.9375 49.7031 38.75C49.7031 57.4062 46.8438 68.7031 41.125 72.6406C39.1562 73.9531 36.8594 74.6094 34.2344 74.6094ZM137.453 5V1.48438H82.1875L81.9062 26.375H85.2812L87.8125 19.4844C89.125 16.1094 91.1875 14.1875 94 13.7188C95.125 13.5312 96.7188 13.4375 98.7812 13.4375H121.281L96.6719 41.8438L100.047 44.6562C103.422 43.25 106.656 42.5469 109.75 42.5469C116.781 42.5469 121.375 46.3438 123.531 53.9375C124.188 56.4688 124.516 59.2344 124.516 62.2344C123.953 76.7656 117.391 84.2188 104.828 84.5938C99.5781 84.5938 96.4375 82.2969 95.4062 77.7031C95.125 76.6719 94.8906 74.9844 94.7031 72.6406C94.3281 67.9531 93.3906 64.9531 91.8906 63.6406C90.5781 62.6094 88.8438 62.0938 86.6875 62.0938C82.2812 62.0938 79.6094 64.0156 78.6719 67.8594C78.4844 68.7031 78.3906 69.5469 78.3906 70.3906C78.3906 77.4219 82.5625 82.5312 90.9062 85.7188C95.5 87.4062 100.656 88.25 106.375 88.25C119.125 88.25 128.688 84.2656 135.062 76.2969C138.812 71.5156 140.688 66.1719 140.688 60.2656C140.688 52.3906 137.453 46.3906 130.984 42.2656C126.484 39.4531 121 38.0469 114.531 38.0469C111.25 38.0469 108.203 38.375 105.391 39.0312L137.453 5Z" fill="#A6CE39" fill-opacity="0.5"/>
</svg>
