<svg width="161" height="108" viewBox="0 0 161 108" fill="none" xmlns="http://www.w3.org/2000/svg">
<path d="M68.6656 12.5918C71.7906 16.3516 74.1099 20.7705 75.6236 25.8486C77.1861 30.8779 77.9673 36.1514 77.9673 41.6689C77.9673 48.3096 77.0152 54.2666 75.1109 59.54C73.2066 64.7646 70.5943 69.1104 67.274 72.5771C63.856 76.1416 59.8033 78.8271 55.1158 80.6338C50.4283 82.4404 45.2037 83.3438 39.4419 83.3438C33.1431 83.3438 27.5279 82.2939 22.5962 80.1943C17.6646 78.0947 13.6607 75.2139 10.5845 71.5518C7.36187 67.7432 4.94488 63.2998 3.33355 58.2217C1.77105 53.0947 0.989799 47.5771 0.989799 41.6689C0.989799 35.8584 1.74664 30.5117 3.26031 25.6289C4.82281 20.7461 7.2398 16.3271 10.5113 12.3721C13.6363 8.56348 17.6646 5.56055 22.5962 3.36328C27.5279 1.16602 33.1675 0.0673828 39.5152 0.0673828C46.2046 0.0673828 51.9419 1.19043 56.7271 3.43652C61.5123 5.68262 65.4918 8.73438 68.6656 12.5918ZM61.7808 41.6689C61.7808 30.0479 59.7789 21.0391 55.775 14.6426C51.8199 8.24609 46.4244 5.04785 39.5884 5.04785C32.6548 5.04785 27.1861 8.24609 23.1822 14.6426C19.1783 21.0391 17.1763 30.0479 17.1763 41.6689C17.1763 52.7041 19.0806 61.5908 22.8892 68.3291C26.7466 75.0186 32.2642 78.3633 39.4419 78.3633C46.6197 78.3633 52.1373 75.0186 55.9947 68.3291C59.8521 61.5908 61.7808 52.7041 61.7808 41.6689ZM121.253 107.733C116.664 107.733 112.464 107.147 108.656 105.976C104.847 104.853 101.576 103.314 98.8414 101.361C96.107 99.4082 93.983 97.1621 92.4693 94.623C91.0044 92.084 90.272 89.4717 90.272 86.7861C90.272 84.3936 90.858 82.2451 92.0298 80.3408C93.2017 78.3877 95.0816 77.4111 97.6695 77.4111C100.599 77.4111 102.821 78.1436 104.335 79.6084C105.897 81.0244 106.678 82.6602 106.678 84.5156C106.678 86.0781 106.41 88.0557 105.873 90.4482C105.384 92.8408 104.994 94.5498 104.701 95.5752C105.043 96.0146 105.653 96.6006 106.532 97.333C107.46 98.0654 108.583 98.7246 109.901 99.3105C111.463 100.043 113.099 100.629 114.808 101.068C116.517 101.508 118.934 101.728 122.059 101.728C124.989 101.728 127.796 101.239 130.482 100.263C133.216 99.2861 135.609 97.7236 137.66 95.5752C139.808 93.3291 141.468 90.6924 142.64 87.665C143.861 84.6865 144.471 80.7559 144.471 75.873C144.471 73.2363 144.178 70.624 143.592 68.0361C143.055 65.4482 142.03 63.2021 140.516 61.2979C139.002 59.3936 136.927 57.9287 134.291 56.9033C131.703 55.8291 128.407 55.292 124.403 55.292H114.808V46.8691H121.18C127.919 46.8691 132.777 45.0137 135.755 41.3027C138.734 37.5918 140.223 32.001 140.223 24.5303C140.223 18.4268 138.783 13.8369 135.902 10.7607C133.021 7.63574 128.944 6.07324 123.67 6.07324C121.131 6.07324 119.032 6.39062 117.372 7.02539C115.76 7.61133 114.442 8.19727 113.417 8.7832C112.196 9.4668 111.195 10.2236 110.414 11.0537C109.632 11.8838 109.046 12.4941 108.656 12.8848C108.998 14.4473 109.413 16.376 109.901 18.6709C110.389 20.917 110.633 23.0654 110.633 25.1162C110.633 26.9229 109.852 28.5586 108.29 30.0234C106.776 31.4395 104.53 32.1475 101.551 32.1475C98.9634 32.1475 97.0591 31.2197 95.8384 29.3643C94.6666 27.5088 94.0806 25.3604 94.0806 22.9189C94.0806 20.3799 94.7886 17.792 96.2046 15.1553C97.6207 12.5186 99.7203 10.0527 102.503 7.75781C105.287 5.46289 108.68 3.60742 112.684 2.19141C116.688 0.775391 121.302 0.0673828 126.527 0.0673828C132.533 0.0673828 137.489 0.970703 141.395 2.77734C145.35 4.53516 148.451 6.68359 150.697 9.22266C152.894 11.7129 154.408 14.3252 155.238 17.0596C156.068 19.7939 156.483 22.1377 156.483 24.0908C156.483 26.5322 156.141 28.998 155.458 31.4883C154.774 33.9297 153.651 36.2002 152.088 38.2998C150.379 40.5947 148.109 42.6943 145.277 44.5986C142.494 46.4541 138.978 47.9678 134.73 49.1396V50.3115C137.464 50.5557 140.37 51.166 143.446 52.1426C146.571 53.1191 149.378 54.5596 151.869 56.4639C154.457 58.4658 156.581 61.0537 158.241 64.2275C159.901 67.3525 160.731 71.332 160.731 76.166C160.731 85.541 156.971 93.1338 149.452 98.9443C141.932 104.804 132.533 107.733 121.253 107.733Z" fill="#A6CE39" fill-opacity="0.2"/>
</svg>
