<svg width="141" height="88" viewBox="0 0 141 88" fill="none" xmlns="http://www.w3.org/2000/svg">
<path d="M34.5156 1.07812C22.6094 1.07812 13.5156 5.67188 7.23438 14.8594C2.64062 21.7031 0.34375 30.0469 0.34375 39.8906C0.34375 55.0781 4.9375 66.1875 14.125 73.2188C19.6562 77.3438 26.2188 79.4062 33.8125 79.4062C45.625 79.4062 54.5781 74.7656 60.6719 65.4844C65.1719 58.6406 67.4219 50.2969 67.4219 40.4531C67.4219 24.0469 62.4531 12.5625 52.5156 6C47.3594 2.71875 41.3594 1.07812 34.5156 1.07812ZM34.2344 75.6094C27.2031 75.6094 22.5625 71.4375 20.3125 63.0938C18.8125 57.6562 18.0625 50.1094 18.0625 40.4531C18.0625 20.9531 21.4844 9.51562 28.3281 6.14062C30.0156 5.29688 31.9375 4.875 34.0938 4.875C41.0312 4.875 45.5781 9.42188 47.7344 18.5156C49.0469 23.8594 49.7031 30.9375 49.7031 39.75C49.7031 58.4062 46.8438 69.7031 41.125 73.6406C39.1562 74.9531 36.8594 75.6094 34.2344 75.6094ZM140.125 87.4219C140.125 85.1719 139.516 83.9531 138.297 83.7656C137.828 83.6719 137.312 83.625 136.75 83.625H127.75V65.9062H140.125V61.6875H127.75V32.5781H124.656L122.828 38.4844C121.797 41.9531 119.922 43.9688 117.203 44.5312C116.172 44.7188 114.906 44.8125 113.406 44.8125H112V61.5469L80.2188 61.4062C96.8125 47.5312 107.734 37.9688 112.984 32.7188C123.016 22.5 128.078 14.5781 128.172 8.95312C128.172 4.45312 125.922 1.78125 121.422 0.9375C120.672 0.75 119.828 0.65625 118.891 0.65625C114.859 0.65625 111.906 2.48438 110.031 6.14062C109.844 6.70312 108.484 10.6406 105.953 17.9531C101.266 31.5469 93.25 43.7344 81.9062 54.5156C79.375 56.8594 76.7031 59.1562 73.8906 61.4062L74.7344 65.625L112 65.7656V83.625H96.25V87.4219H140.125Z" fill="#A6CE39" fill-opacity="0.5"/>
</svg>
