<svg width="40" height="40" viewBox="0 0 40 40" fill="none" xmlns="http://www.w3.org/2000/svg">
<path d="M32 12.0312V8H8V12.0312H32ZM24.0312 24.0312V20H8V24.0312H24.0312ZM8 14V18.0312H32V14H8ZM36.0312 0.03125C37.0938 0.03125 38 0.4375 38.75 1.25C39.5625 2 39.9688 2.90625 39.9688 3.96875V27.9688C39.9688 29.0312 39.5625 29.9688 38.75 30.7812C38 31.5938 37.0938 32 36.0312 32H8L0.03125 39.9688V3.96875C0.03125 2.90625 0.40625 2 1.15625 1.25C1.96875 0.4375 2.90625 0.03125 3.96875 0.03125H36.0312Z" fill="#A6CE39"/>
</svg>
