<svg width="40" height="34" viewBox="0 0 40 34" fill="none" xmlns="http://www.w3.org/2000/svg">
<path d="M36.0312 9.03125V5L20 15.0312L3.96875 5V9.03125L20 18.9688L36.0312 9.03125ZM36.0312 0.96875C37.0938 0.96875 38 1.375 38.75 2.1875C39.5625 3 39.9688 3.9375 39.9688 5V29C39.9688 30.0625 39.5625 31 38.75 31.8125C38 32.625 37.0938 33.0312 36.0312 33.0312H3.96875C2.90625 33.0312 1.96875 32.625 1.15625 31.8125C0.40625 31 0.03125 30.0625 0.03125 29V5C0.03125 3.9375 0.40625 3 1.15625 2.1875C1.96875 1.375 2.90625 0.96875 3.96875 0.96875H36.0312Z" fill="#A6CE39"/>
</svg>
