<svg width="36" height="36" viewBox="0 0 36 36" fill="none" xmlns="http://www.w3.org/2000/svg">
<path d="M7.21875 15.5625C10.2188 21.375 14.625 25.7812 20.4375 28.7812L24.8438 24.375C25.4688 23.75 26.1562 23.5938 26.9062 23.9062C29.1562 24.6562 31.5312 25.0312 34.0312 25.0312C34.5938 25.0312 35.0625 25.2188 35.4375 25.5938C35.8125 25.9688 36 26.4375 36 27V34.0312C36 34.5938 35.8125 35.0625 35.4375 35.4375C35.0625 35.8125 34.5938 36 34.0312 36C24.6562 36 16.625 32.6875 9.9375 26.0625C3.3125 19.375 0 11.3438 0 1.96875C0 1.40625 0.1875 0.9375 0.5625 0.5625C0.9375 0.1875 1.40625 0 1.96875 0H9C9.5625 0 10.0312 0.1875 10.4062 0.5625C10.7812 0.9375 10.9688 1.40625 10.9688 1.96875C10.9688 4.46875 11.3438 6.84375 12.0938 9.09375C12.3438 9.90625 12.1875 10.5938 11.625 11.1562L7.21875 15.5625Z" fill="#A6CE39"/>
</svg>
